<mxfile host="app.diagrams.net" modified="2021-06-09T03:13:22.811Z" agent="5.0 (Windows NT 6.1; Win64; x64) AppleWebKit/537.36 (KHTML, like Gecko) Chrome/83.0.4103.116 Safari/537.36" etag="28g8zOCDcy2kLELZlxIU" version="14.7.3" type="github">
  <diagram id="7RQIWZGPMPq4KVKN8NWZ" name="Page-1">
    <mxGraphModel dx="813" dy="407" grid="1" gridSize="10" guides="1" tooltips="1" connect="1" arrows="1" fold="1" page="1" pageScale="1" pageWidth="827" pageHeight="1169" math="0" shadow="0">
      <root>
        <mxCell id="0" />
        <mxCell id="1" parent="0" />
        <mxCell id="sBtjp7mfKQXaqbB0Qfh1-1" value="irq_domain" style="rounded=0;whiteSpace=wrap;html=1;" vertex="1" parent="1">
          <mxGeometry x="269" y="190" width="100" height="40" as="geometry" />
        </mxCell>
        <mxCell id="sBtjp7mfKQXaqbB0Qfh1-2" value="&lt;span style=&quot;color: rgb(77, 77, 77); font-size: 18px; font-style: normal; font-weight: 400; letter-spacing: normal; text-indent: 0px; text-transform: none; word-spacing: 0px; background-color: rgb(255, 255, 255); display: inline; float: none;&quot;&gt;irq_domain_list&lt;/span&gt;" style="text;whiteSpace=wrap;html=1;" vertex="1" parent="1">
          <mxGeometry x="60" y="195" width="130" height="30" as="geometry" />
        </mxCell>
        <mxCell id="sBtjp7mfKQXaqbB0Qfh1-3" value="" style="endArrow=classic;html=1;exitX=0;exitY=0.5;exitDx=0;exitDy=0;" edge="1" parent="1" source="sBtjp7mfKQXaqbB0Qfh1-1" target="sBtjp7mfKQXaqbB0Qfh1-2">
          <mxGeometry width="50" height="50" relative="1" as="geometry">
            <mxPoint x="310" y="320" as="sourcePoint" />
            <mxPoint x="360" y="270" as="targetPoint" />
          </mxGeometry>
        </mxCell>
        <mxCell id="sBtjp7mfKQXaqbB0Qfh1-4" value="link" style="edgeLabel;html=1;align=center;verticalAlign=middle;resizable=0;points=[];" vertex="1" connectable="0" parent="sBtjp7mfKQXaqbB0Qfh1-3">
          <mxGeometry x="-0.3107" y="-1" relative="1" as="geometry">
            <mxPoint y="-9" as="offset" />
          </mxGeometry>
        </mxCell>
        <mxCell id="sBtjp7mfKQXaqbB0Qfh1-7" style="edgeStyle=orthogonalEdgeStyle;rounded=0;orthogonalLoop=1;jettySize=auto;html=1;entryX=1;entryY=0.5;entryDx=0;entryDy=0;" edge="1" parent="1" source="sBtjp7mfKQXaqbB0Qfh1-5" target="sBtjp7mfKQXaqbB0Qfh1-1">
          <mxGeometry relative="1" as="geometry" />
        </mxCell>
        <mxCell id="sBtjp7mfKQXaqbB0Qfh1-5" value="irq_domain" style="rounded=0;whiteSpace=wrap;html=1;" vertex="1" parent="1">
          <mxGeometry x="430" y="190" width="100" height="40" as="geometry" />
        </mxCell>
        <mxCell id="sBtjp7mfKQXaqbB0Qfh1-8" style="edgeStyle=orthogonalEdgeStyle;rounded=0;orthogonalLoop=1;jettySize=auto;html=1;entryX=1;entryY=0.5;entryDx=0;entryDy=0;" edge="1" parent="1" source="sBtjp7mfKQXaqbB0Qfh1-6" target="sBtjp7mfKQXaqbB0Qfh1-5">
          <mxGeometry relative="1" as="geometry">
            <mxPoint x="550" y="210" as="targetPoint" />
          </mxGeometry>
        </mxCell>
        <mxCell id="sBtjp7mfKQXaqbB0Qfh1-6" value="irq_domain" style="rounded=0;whiteSpace=wrap;html=1;" vertex="1" parent="1">
          <mxGeometry x="580" y="190" width="100" height="40" as="geometry" />
        </mxCell>
        <mxCell id="sBtjp7mfKQXaqbB0Qfh1-11" value="irq_desc_tree" style="text;html=1;strokeColor=none;fillColor=none;align=center;verticalAlign=middle;whiteSpace=wrap;rounded=0;" vertex="1" parent="1">
          <mxGeometry x="431" y="291" width="90" height="20" as="geometry" />
        </mxCell>
        <mxCell id="sBtjp7mfKQXaqbB0Qfh1-12" value="" style="endArrow=none;html=1;" edge="1" parent="1">
          <mxGeometry width="50" height="50" relative="1" as="geometry">
            <mxPoint x="456" y="331" as="sourcePoint" />
            <mxPoint x="476" y="311" as="targetPoint" />
          </mxGeometry>
        </mxCell>
        <mxCell id="sBtjp7mfKQXaqbB0Qfh1-13" value="" style="endArrow=none;html=1;" edge="1" parent="1">
          <mxGeometry width="50" height="50" relative="1" as="geometry">
            <mxPoint x="496" y="331" as="sourcePoint" />
            <mxPoint x="476" y="311" as="targetPoint" />
          </mxGeometry>
        </mxCell>
        <mxCell id="sBtjp7mfKQXaqbB0Qfh1-14" value="" style="ellipse;whiteSpace=wrap;html=1;aspect=fixed;fillColor=#000000;" vertex="1" parent="1">
          <mxGeometry x="446" y="331" width="20" height="20" as="geometry" />
        </mxCell>
        <mxCell id="sBtjp7mfKQXaqbB0Qfh1-15" value="" style="ellipse;whiteSpace=wrap;html=1;aspect=fixed;fillColor=#FF3333;" vertex="1" parent="1">
          <mxGeometry x="486" y="331" width="20" height="20" as="geometry" />
        </mxCell>
        <mxCell id="sBtjp7mfKQXaqbB0Qfh1-24" style="edgeStyle=orthogonalEdgeStyle;rounded=0;orthogonalLoop=1;jettySize=auto;html=1;entryX=1;entryY=0.5;entryDx=0;entryDy=0;exitX=0;exitY=0.5;exitDx=0;exitDy=0;" edge="1" parent="1" source="sBtjp7mfKQXaqbB0Qfh1-19" target="sBtjp7mfKQXaqbB0Qfh1-23">
          <mxGeometry relative="1" as="geometry" />
        </mxCell>
        <mxCell id="sBtjp7mfKQXaqbB0Qfh1-25" value="chip" style="edgeLabel;html=1;align=center;verticalAlign=middle;resizable=0;points=[];" vertex="1" connectable="0" parent="sBtjp7mfKQXaqbB0Qfh1-24">
          <mxGeometry x="-0.3049" y="-1" relative="1" as="geometry">
            <mxPoint y="-14" as="offset" />
          </mxGeometry>
        </mxCell>
        <mxCell id="sBtjp7mfKQXaqbB0Qfh1-28" style="edgeStyle=orthogonalEdgeStyle;rounded=0;orthogonalLoop=1;jettySize=auto;html=1;entryX=0.5;entryY=0;entryDx=0;entryDy=0;" edge="1" parent="1" source="sBtjp7mfKQXaqbB0Qfh1-16" target="sBtjp7mfKQXaqbB0Qfh1-27">
          <mxGeometry relative="1" as="geometry" />
        </mxCell>
        <mxCell id="sBtjp7mfKQXaqbB0Qfh1-29" value="action" style="edgeLabel;html=1;align=center;verticalAlign=middle;resizable=0;points=[];" vertex="1" connectable="0" parent="sBtjp7mfKQXaqbB0Qfh1-28">
          <mxGeometry x="-0.3" y="1" relative="1" as="geometry">
            <mxPoint x="1" y="-4" as="offset" />
          </mxGeometry>
        </mxCell>
        <mxCell id="sBtjp7mfKQXaqbB0Qfh1-16" value="" style="rounded=0;whiteSpace=wrap;html=1;" vertex="1" parent="1">
          <mxGeometry x="270" y="290" width="95" height="70" as="geometry" />
        </mxCell>
        <mxCell id="sBtjp7mfKQXaqbB0Qfh1-17" value="" style="endArrow=classic;html=1;exitX=1;exitY=0.5;exitDx=0;exitDy=0;" edge="1" parent="1" source="sBtjp7mfKQXaqbB0Qfh1-19">
          <mxGeometry width="50" height="50" relative="1" as="geometry">
            <mxPoint x="400" y="350" as="sourcePoint" />
            <mxPoint x="430" y="325" as="targetPoint" />
          </mxGeometry>
        </mxCell>
        <mxCell id="sBtjp7mfKQXaqbB0Qfh1-19" value="irq_data" style="rounded=0;whiteSpace=wrap;html=1;fillColor=#FFFFFF;" vertex="1" parent="1">
          <mxGeometry x="282.5" y="310" width="70" height="30" as="geometry" />
        </mxCell>
        <mxCell id="sBtjp7mfKQXaqbB0Qfh1-20" value="irq_desc" style="text;whiteSpace=wrap;html=1;" vertex="1" parent="1">
          <mxGeometry x="290" y="270" width="55" height="20" as="geometry" />
        </mxCell>
        <mxCell id="sBtjp7mfKQXaqbB0Qfh1-21" value="" style="endArrow=classic;html=1;exitX=0.901;exitY=0.002;exitDx=0;exitDy=0;exitPerimeter=0;entryX=0.867;entryY=0.984;entryDx=0;entryDy=0;entryPerimeter=0;" edge="1" parent="1" source="sBtjp7mfKQXaqbB0Qfh1-16" target="sBtjp7mfKQXaqbB0Qfh1-1">
          <mxGeometry width="50" height="50" relative="1" as="geometry">
            <mxPoint x="390" y="300" as="sourcePoint" />
            <mxPoint x="356" y="232" as="targetPoint" />
          </mxGeometry>
        </mxCell>
        <mxCell id="sBtjp7mfKQXaqbB0Qfh1-22" value="domain" style="edgeLabel;html=1;align=center;verticalAlign=middle;resizable=0;points=[];" vertex="1" connectable="0" parent="sBtjp7mfKQXaqbB0Qfh1-21">
          <mxGeometry x="-0.2925" relative="1" as="geometry">
            <mxPoint as="offset" />
          </mxGeometry>
        </mxCell>
        <mxCell id="sBtjp7mfKQXaqbB0Qfh1-23" value="irq_chip" style="rounded=0;whiteSpace=wrap;html=1;fillColor=#FFFFFF;" vertex="1" parent="1">
          <mxGeometry x="120" y="310" width="70" height="30" as="geometry" />
        </mxCell>
        <mxCell id="sBtjp7mfKQXaqbB0Qfh1-26" value="" style="edgeStyle=orthogonalEdgeStyle;rounded=0;orthogonalLoop=1;jettySize=auto;html=1;exitX=0;exitY=0.5;exitDx=0;exitDy=0;" edge="1" parent="1" source="sBtjp7mfKQXaqbB0Qfh1-19" target="sBtjp7mfKQXaqbB0Qfh1-23">
          <mxGeometry relative="1" as="geometry" />
        </mxCell>
        <mxCell id="sBtjp7mfKQXaqbB0Qfh1-32" style="edgeStyle=orthogonalEdgeStyle;rounded=0;orthogonalLoop=1;jettySize=auto;html=1;entryX=0;entryY=0.5;entryDx=0;entryDy=0;" edge="1" parent="1" source="sBtjp7mfKQXaqbB0Qfh1-27" target="sBtjp7mfKQXaqbB0Qfh1-30">
          <mxGeometry relative="1" as="geometry" />
        </mxCell>
        <mxCell id="sBtjp7mfKQXaqbB0Qfh1-34" value="next" style="edgeLabel;html=1;align=center;verticalAlign=middle;resizable=0;points=[];" vertex="1" connectable="0" parent="sBtjp7mfKQXaqbB0Qfh1-32">
          <mxGeometry x="-0.7953" relative="1" as="geometry">
            <mxPoint x="10" y="-9" as="offset" />
          </mxGeometry>
        </mxCell>
        <mxCell id="sBtjp7mfKQXaqbB0Qfh1-27" value="irqaction" style="rounded=0;whiteSpace=wrap;html=1;fillColor=#FFFFFF;" vertex="1" parent="1">
          <mxGeometry x="282.5" y="400" width="70" height="30" as="geometry" />
        </mxCell>
        <mxCell id="sBtjp7mfKQXaqbB0Qfh1-33" style="edgeStyle=orthogonalEdgeStyle;rounded=0;orthogonalLoop=1;jettySize=auto;html=1;" edge="1" parent="1" source="sBtjp7mfKQXaqbB0Qfh1-30" target="sBtjp7mfKQXaqbB0Qfh1-31">
          <mxGeometry relative="1" as="geometry" />
        </mxCell>
        <mxCell id="sBtjp7mfKQXaqbB0Qfh1-35" value="next" style="edgeLabel;html=1;align=center;verticalAlign=middle;resizable=0;points=[];" vertex="1" connectable="0" parent="sBtjp7mfKQXaqbB0Qfh1-33">
          <mxGeometry x="-0.7302" y="-1" relative="1" as="geometry">
            <mxPoint x="13" y="-10" as="offset" />
          </mxGeometry>
        </mxCell>
        <mxCell id="sBtjp7mfKQXaqbB0Qfh1-30" value="irqaction" style="rounded=0;whiteSpace=wrap;html=1;fillColor=#FFFFFF;" vertex="1" parent="1">
          <mxGeometry x="416" y="400" width="70" height="30" as="geometry" />
        </mxCell>
        <mxCell id="sBtjp7mfKQXaqbB0Qfh1-31" value="irqaction" style="rounded=0;whiteSpace=wrap;html=1;fillColor=#FFFFFF;" vertex="1" parent="1">
          <mxGeometry x="540" y="400" width="70" height="30" as="geometry" />
        </mxCell>
      </root>
    </mxGraphModel>
  </diagram>
</mxfile>
